<?xml version="1.0" encoding="iso-8859-1"?>
<!-- Generator: Adobe Illustrator 19.0.0, SVG Export Plug-In . SVG Version: 6.00 Build 0)  -->
<svg version="1.1" id="Capa_1" xmlns="http://www.w3.org/2000/svg" xmlns:xlink="http://www.w3.org/1999/xlink" x="0px" y="0px"
	 viewBox="0 0 508 508" style="enable-background:new 0 0 508 508;" xml:space="preserve">
<g>
	<g>
		<path d="M508,35H0v367.9h127.5l-19.7,52.6h-29V473h350.3v-17.5h-29l-19.7-52.6H508V35z M381.5,455.4h-255l19.7-52.6h215.6
			L381.5,455.4z M490.5,385.4H373.9H134.1H17.5v-52.6h473V385.4z M490.5,315.4h-473V52.6h473V315.4z"/>
	</g>
</g>
<g>
	<g>
		<rect x="245.2" y="350.3" width="17.5" height="17.5"/>
	</g>
</g>
<g>
	<g>
		<rect x="280.3" y="350.3" width="17.5" height="17.5"/>
	</g>
</g>
<g>
	<g>
		<rect x="210.2" y="350.3" width="17.5" height="17.5"/>
	</g>
</g>
<g>
	<g>
		<polygon points="183.5,128.9 171.4,116.3 101.2,183.9 171.4,251.5 183.5,238.9 126.5,183.9 		"/>
	</g>
</g>
<g>
	<g>
		<polygon points="336.6,116.3 324.5,128.9 381.5,183.9 324.5,238.9 336.6,251.5 406.8,183.9 		"/>
	</g>
</g>
<g>
	<g>
		<polygon points="299,91.8 193.9,267 209,276 314.1,100.9 		"/>
	</g>
</g>
<g>
</g>
<g>
</g>
<g>
</g>
<g>
</g>
<g>
</g>
<g>
</g>
<g>
</g>
<g>
</g>
<g>
</g>
<g>
</g>
<g>
</g>
<g>
</g>
<g>
</g>
<g>
</g>
<g>
</g>
</svg>
